<?xml version="1.0" encoding="UTF-8"?>
<svg version="1.1" xmlns="http://www.w3.org/2000/svg" width="1440" height="468">
<path d="M0 0 C475.2 0 950.4 0 1440 0 C1440 154.44 1440 308.88 1440 468 C964.8 468 489.6 468 0 468 C0 313.56 0 159.12 0 0 Z " fill="#150050" transform="translate(0,0)"/>
<path d="M0 0 C178.2 0 356.4 0 540 0 C540 154.44 540 308.88 540 468 C323.85 468 107.7 468 -115 468 C-115 441.14495457 -115 441.14495457 -113.8125 430.375 C-113.6786792 429.12267578 -113.5448584 427.87035156 -113.40698242 426.58007812 C-105.98371737 360.51095137 -82.11457101 295.35107749 -42 242 C-41.55962402 241.41089844 -41.11924805 240.82179687 -40.66552734 240.21484375 C-37.82927574 236.43458444 -34.93343429 232.70564629 -32 229 C-31.26265625 228.06800781 -30.5253125 227.13601562 -29.765625 226.17578125 C-21.73677353 216.19665912 -13.06579917 206.8969462 -3.8984375 197.9609375 C42.00865893 150.54249633 -0.3402005 65.99889642 0 0 Z " fill="#00CB61" transform="translate(900,0)"/>
<path d="M0 0 C178.2 0 356.4 0 540 0 C540 64.35 540 128.7 540 195 C538 195 538 195 535.6640625 192.796875 C534.34535156 191.41242188 534.34535156 191.41242188 533 190 C526.86139838 183.67284065 520.61506568 177.77246037 513.67871094 172.32373047 C511.78886072 170.83350826 509.91469167 169.32448339 508.0390625 167.81640625 C491.05356048 154.26828645 473.01999977 142.48434558 454 132 C452.78739502 131.32590088 452.78739502 131.32590088 451.55029297 130.63818359 C366.69980698 83.76506582 260.35165637 71.34126082 167 98 C158.59143724 100.44979095 150.28180271 103.15325457 142 106 C141.03304199 106.32806641 140.06608398 106.65613281 139.06982422 106.99414062 C113.05011118 115.92122201 88.23069956 128.30657013 65 143 C64.31631348 143.43086914 63.63262695 143.86173828 62.92822266 144.30566406 C44.23503912 156.19063301 26.73944543 169.76967094 10.51171875 184.83203125 C7.15259602 187.73142956 3.54989271 190.33758046 0 193 C0 129.31 0 65.62 0 0 Z " fill="#FEE276" transform="translate(900,0)"/>
</svg>
