<?xml version="1.0" standalone="no"?>
<!DOCTYPE svg PUBLIC "-//W3C//DTD SVG 20010904//EN"
 "http://www.w3.org/TR/2001/REC-SVG-20010904/DTD/svg10.dtd">
<svg version="1.0" xmlns="http://www.w3.org/2000/svg"
 width="24.000000pt" height="24.000000pt" viewBox="0 0 24.000000 24.000000"
 preserveAspectRatio="xMidYMid meet">

<g transform="translate(0.000000,24.000000) scale(0.100000,-0.100000)"
fill="#000000" stroke="none">
<path d="M82 205 c-21 -9 -38 -27 -48 -50 -20 -49 1 -100 51 -120 31 -14 39
-14 70 0 78 32 78 138 1 170 -41 18 -33 18 -74 0z m11 -25 c-3 -11 -14 -20
-24 -20 -23 0 -24 4 -3 24 21 22 33 20 27 -4z m41 4 c9 -23 8 -24 -14 -24 -11
0 -20 2 -20 4 0 12 13 36 20 36 4 0 11 -7 14 -16z m39 2 c22 -17 22 -26 -2
-26 -10 0 -21 9 -24 20 -6 23 1 25 26 6z m-93 -66 c0 -13 -7 -20 -20 -20 -13
0 -20 7 -20 20 0 13 7 20 20 20 13 0 20 -7 20 -20z m70 0 c0 -16 -7 -20 -30
-20 -23 0 -30 4 -30 20 0 16 7 20 30 20 23 0 30 -4 30 -20z m50 0 c0 -13 -7
-20 -20 -20 -13 0 -20 7 -20 20 0 13 7 20 20 20 13 0 20 -7 20 -20z m-107 -60
c6 -23 -1 -25 -25 -6 -23 17 -23 26 1 26 10 0 21 -9 24 -20z m47 13 c0 -5 -5
-15 -10 -23 -9 -13 -11 -13 -20 0 -15 22 -12 30 10 30 11 0 20 -3 20 -7z m50
3 c0 -8 -31 -36 -40 -36 -4 0 -6 9 -3 20 4 16 43 30 43 16z"/>
</g>
</svg>
