<?xml version="1.0" standalone="no"?>
<!DOCTYPE svg PUBLIC "-//W3C//DTD SVG 20010904//EN"
 "http://www.w3.org/TR/2001/REC-SVG-20010904/DTD/svg10.dtd">
<svg version="1.0" xmlns="http://www.w3.org/2000/svg"
 width="67.000000pt" height="76.000000pt" viewBox="0 0 67.000000 76.000000"
 preserveAspectRatio="xMidYMid meet">

<g transform="translate(0.000000,76.000000) scale(0.100000,-0.100000)"
fill="#000000" stroke="none">
<path d="M297 749 c-146 -19 -232 -104 -245 -243 -3 -43 -10 -65 -23 -74 -44
-31 -27 -140 26 -164 14 -6 28 -23 32 -37 12 -53 44 -100 100 -151 32 -28 69
-56 83 -62 45 -18 108 -11 154 16 65 38 141 126 154 179 8 31 19 47 37 55 53
24 70 133 26 164 -10 7 -21 32 -25 57 -16 104 -92 187 -193 213 -36 8 -43 15
-43 34 0 13 -3 23 -7 23 -5 -1 -39 -5 -76 -10z m158 -199 c16 -6 32 -25 44
-52 10 -24 28 -49 40 -56 17 -10 21 -22 21 -62 0 -38 4 -50 15 -50 11 0 15 11
15 40 0 33 3 40 20 40 17 0 20 -7 20 -44 0 -47 -19 -76 -49 -76 -13 0 -21 -14
-30 -57 -11 -45 -22 -65 -61 -104 -65 -65 -107 -89 -155 -89 -48 0 -84 20
-152 87 -42 41 -53 59 -63 106 -10 43 -18 57 -31 57 -30 0 -49 29 -49 76 0 37
3 44 20 44 17 0 20 -7 20 -40 0 -29 4 -40 15 -40 11 0 15 12 15 50 0 41 4 52
24 65 13 9 31 34 40 55 8 21 20 41 25 45 40 24 197 27 256 5z"/>
<path d="M199 389 c-9 -18 -7 -25 9 -41 16 -16 23 -18 41 -9 23 13 28 40 9 59
-19 19 -46 14 -59 -9z"/>
<path d="M413 403 c-21 -8 -15 -51 8 -64 18 -9 25 -7 41 9 35 34 -2 75 -49 55z"/>
<path d="M230 224 c0 -32 59 -74 105 -74 46 0 105 42 105 74 0 13 -24 4 -52
-19 -16 -14 -40 -25 -53 -25 -13 0 -37 11 -53 25 -28 23 -52 32 -52 19z"/>
</g>
</svg>
